<svg width="734" height="663" viewBox="0 0 734 663" fill="none" xmlns="http://www.w3.org/2000/svg">
<path fill-rule="evenodd" clip-rule="evenodd" d="M444.076 1.81225C484.826 -4.94381 570.621 3.54891 570.621 91.0818C570.621 100.66 569.197 112.282 565.553 122.185C558.866 140.358 537.175 143.892 517.942 146.15C454.102 153.643 351.255 169.806 288.752 193.734C285.105 195.13 282.314 198.135 281.494 201.954C280.807 205.154 280.193 208.973 280.053 212.606C279.986 214.336 281.667 215.506 283.314 214.973C321.398 202.65 411.989 180.794 514.132 176.729C535.885 175.864 557.659 177.866 578.703 183.444C608.822 191.428 650.723 204.934 690.229 224.165C692.916 225.474 694.602 228.212 694.602 231.201V247.015C694.602 249.707 693.267 252.208 690.949 253.577C667.959 267.161 616.122 288.957 548.98 295.655C591.171 303.804 671.53 323.94 707.846 349.809C709.512 350.996 710.438 352.923 710.438 354.968V363.056C710.438 365.909 708.615 368.446 705.864 369.204C684.849 374.995 641.678 381.298 602.135 369.425C599.229 368.553 596.062 369.644 594.429 372.201L588.353 381.717C586.285 384.955 587.429 389.257 590.73 391.222C613.062 404.513 636.03 426.433 643.122 458.072C649.031 484.434 637.526 513.476 613.644 526.107C593.378 536.826 565.485 539.367 533.05 515.649C530.417 513.725 526.974 513.165 523.932 514.339L519.787 515.94C518.301 516.514 517.657 518.264 518.488 519.622C533.62 544.34 576.374 578.884 639.262 536.706C643.371 533.95 652.142 531.362 656.896 536.706C662.635 543.159 677.321 556.053 693.233 560.084C695.721 560.714 697.658 562.809 697.551 565.373C696.093 600.393 667.085 662.625 558.213 662.625C492.354 662.625 441.133 605.193 377.173 589.493C337.158 579.671 287.784 573.186 231.831 575.966C150.515 580.006 80.6213 569.575 34.601 498.682C16.1482 467.666 2.13456 373.813 73.9568 275.416C55.7555 269.894 35.5114 262.37 19.9766 256.292C4.77187 250.344 -3.86609 234.456 1.6968 219.106C7.40291 203.361 17.0353 182.946 32.7296 164.349C48.3684 145.817 67.5912 132.307 82.9233 123.423C97.8883 114.752 116.11 121.181 124.42 136.35C125.328 138.007 126.258 139.717 127.209 141.469C169.618 106.991 295.416 26.4591 444.076 1.81225ZM507.614 459.865C507.614 455.919 504.163 452.861 500.246 453.336L362.194 470.082C360.478 470.29 359.188 471.746 359.187 473.474C359.187 475.362 360.717 476.893 362.605 476.893H501.038C504.67 476.893 507.614 473.949 507.614 470.317V459.865ZM479.947 405.742C479.947 401.1 475.96 397.46 471.337 397.883L247.177 418.377C245.094 418.567 243.5 420.314 243.5 422.406C243.5 424.641 245.311 426.453 247.546 426.453H472.055C476.414 426.453 479.947 422.92 479.947 418.562V405.742ZM293.732 302.535C293.732 342.016 332.306 374.021 379.888 374.021C427.47 374.02 466.043 342.015 466.043 302.535H446.543C446.623 303.468 446.668 304.411 446.668 305.364C446.667 323.542 431.718 338.278 413.278 338.278C394.837 338.278 379.888 323.542 379.888 305.364C379.888 304.411 379.931 303.467 380.011 302.535H293.732ZM484.797 71.1373C480.72 53.9726 465.881 42.7972 451.654 46.176C437.426 49.5552 429.197 66.2092 433.274 83.374C437.35 100.539 452.188 111.714 466.415 108.335C480.643 104.956 488.873 88.3024 484.797 71.1373Z" fill="#3F744D"/>
<path d="M720.941 411.837C724.217 411.837 727.179 413.853 728.131 416.988C735.931 442.696 739.809 495.197 710.686 534.222C706.173 540.269 698.777 544.226 691.678 541.67C682.263 538.281 671.919 529.088 666.149 509.222C659.161 485.165 661.714 458.036 676.379 437.725C682.21 429.65 689.992 421.832 700.16 415.821C705.088 412.908 710.835 411.837 716.559 411.837H720.941Z" fill="#3F744D"/>
</svg>
